<svg xmlns="http://www.w3.org/2000/svg" viewBox="0 0 64 64" role="img" aria-label="Medical Imaging"><rect width="64" height="64" rx="12" fill="#DC2626"/><rect x="15" y="13" width="34" height="38" rx="5" fill="#FEF2F2"/><path d="M30 46c-6-2-10-7-10-14 0-6 4-10 10-10 1-4 5-6 9-5 5 2 6 7 4 12 4 2 5 6 4 10-2 6-9 10-17 7z" fill="#DC2626"/><path d="M32 24c0-6 4-10 9-10s8 4 7 9M39 14v-4M44 16l4-3M47 22h3" fill="none" stroke="#DC2626" stroke-width="3.3" stroke-linecap="round" stroke-linejoin="round"/><path d="M30 31c4 2 8 2 12-1M35 29c-3 5-4 11-2 17" fill="none" stroke="#FCA5A5" stroke-width="2.4" stroke-linecap="round" stroke-linejoin="round"/></svg>
